<svg width="13" height="13" viewBox="0 0 13 13" fill="none" xmlns="http://www.w3.org/2000/svg">
<g clip-path="url(#clip0_50_5)">
<path d="M11.4562 0.8125H6.41875C6.22488 0.812715 6.039 0.889826 5.90192 1.02692C5.76483 1.16401 5.68772 1.34988 5.6875 1.54375V5.6875H1.54375C1.34988 5.68772 1.16401 5.76483 1.02692 5.90192C0.889826 6.039 0.812715 6.22488 0.8125 6.41875V11.4562C0.8125 11.8594 1.14059 12.1875 1.54375 12.1875H11.1854C11.7379 12.1875 12.1875 11.738 12.1875 11.1854V1.54375C12.1875 1.14059 11.8594 0.8125 11.4562 0.8125ZM11.5375 11.1854C11.5374 11.2787 11.5003 11.3682 11.4343 11.4343C11.3682 11.5003 11.2787 11.5374 11.1854 11.5375H1.54375C1.5222 11.5375 1.50153 11.5289 1.4863 11.5137C1.47106 11.4985 1.4625 11.4778 1.4625 11.4562V6.41875C1.4625 6.3972 1.47106 6.37653 1.4863 6.3613C1.50153 6.34606 1.5222 6.3375 1.54375 6.3375H6.0125C6.0987 6.3375 6.18136 6.30326 6.24231 6.24231C6.30326 6.18136 6.3375 6.0987 6.3375 6.0125V1.54375C6.3375 1.5222 6.34606 1.50153 6.3613 1.4863C6.37653 1.47106 6.3972 1.4625 6.41875 1.4625H11.4562C11.4778 1.4625 11.4985 1.47106 11.5137 1.4863C11.5289 1.50153 11.5375 1.5222 11.5375 1.54375V11.1854Z" fill="#41CAC2"/>
<path fill-rule="evenodd" clip-rule="evenodd" d="M7 1C6.44772 1 6 1.44772 6 2V6H2C1.44772 6 1 6.44772 1 7V11C1 11.5523 1.44771 12 2 12H11C11.5523 12 12 11.5523 12 11V7C12 6.81786 11.9513 6.64709 11.8662 6.5C11.9513 6.35291 12 6.18214 12 6V2C12 1.44772 11.5523 1 11 1H7Z" fill="#41CAC2"/>
<path d="M8.93752 3.89999C8.85133 3.89999 8.76866 3.93423 8.70771 3.99518C8.64676 4.05613 8.61252 4.1388 8.61252 4.22499V8.69374H4.40377L4.95773 8.13994C4.98877 8.10996 5.01353 8.0741 5.03057 8.03445C5.0476 7.9948 5.05657 7.95215 5.05694 7.909C5.05732 7.86585 5.04909 7.82305 5.03275 7.78311C5.01641 7.74317 4.99228 7.70688 4.96176 7.67637C4.93125 7.64585 4.89496 7.62172 4.85502 7.60538C4.81508 7.58904 4.77228 7.58081 4.72913 7.58119C4.68598 7.58156 4.64333 7.59053 4.60368 7.60756C4.56403 7.62459 4.52816 7.64935 4.49818 7.68039L3.38977 8.78864C3.37462 8.8039 3.36102 8.82061 3.34915 8.83853C3.34362 8.84649 3.34005 8.85511 3.3355 8.86339C3.32981 8.87363 3.32363 8.88354 3.31925 8.89443C3.3147 8.90516 3.31226 8.91621 3.30901 8.92726C3.30625 8.93652 3.30251 8.94546 3.30072 8.95504C3.29234 8.9971 3.29234 9.04039 3.30072 9.08244C3.30267 9.09203 3.30625 9.10097 3.30885 9.11007C3.3121 9.12128 3.3147 9.13233 3.31908 9.14306C3.32363 9.15394 3.32981 9.16386 3.3355 9.17409C3.34005 9.18238 3.34362 9.19099 3.34898 9.19896C3.36101 9.21683 3.3745 9.23357 3.38961 9.24868L4.49818 10.3571C4.56156 10.4206 4.64476 10.4523 4.72796 10.4523C4.81116 10.4523 4.8942 10.4206 4.95773 10.3571C5.01866 10.2961 5.05289 10.2135 5.05289 10.1273C5.05289 10.0411 5.01866 9.95849 4.95773 9.89754L4.40377 9.34374H8.93752C9.02372 9.34374 9.10638 9.3095 9.16733 9.24855C9.22828 9.1876 9.26252 9.10494 9.26252 9.01874V4.22499C9.26252 4.1388 9.22828 4.05613 9.16733 3.99518C9.10638 3.93423 9.02372 3.89999 8.93752 3.89999Z" fill="#153D52"/>
</g>
<defs>
<clipPath id="clip0_50_5">
<rect width="13" height="13" fill="white"/>
</clipPath>
</defs>
</svg>
