<svg width="414" height="151" viewBox="0 0 414 151" fill="none" xmlns="http://www.w3.org/2000/svg">
<path d="M404.292 0.557739C409.283 0.557739 413.329 4.60377 413.329 9.59479C413.329 13.6006 413.329 17.6038 413.329 21.6046C413.329 22.1529 412.887 22.5989 412.339 22.6044C403.926 22.6892 395.514 22.7632 387.125 23.1568C385.912 23.2131 385.867 24.3614 387.081 24.4111C395.493 24.7554 403.911 24.8742 412.318 24.9959C412.864 25.0038 413.303 25.4492 413.303 25.9958C413.303 39.4915 413.303 52.9911 413.303 66.4945C413.303 67.0332 412.877 67.4749 412.338 67.4956C407.561 67.6788 402.875 67.9691 398.144 68.1248C402.852 68.5073 407.583 68.778 412.316 68.8638C412.863 68.8737 413.303 69.3191 413.303 69.8664C413.303 88.3893 413.303 106.912 413.303 125.435C413.303 125.973 412.878 126.416 412.34 126.424C409.514 126.469 406.681 126.278 403.857 126.22C391.177 125.824 378.523 125.824 365.83 126.08C361.862 126.187 357.891 126.283 353.923 126.426C352.684 126.47 352.689 127.829 353.928 127.875C364.487 128.27 375.058 128.378 385.63 128.342C394.514 128.342 403.41 128.117 412.284 127.838C412.849 127.82 413.316 128.273 413.316 128.838C413.316 132.862 413.316 136.861 413.316 140.855C413.316 146.331 408.988 150.66 403.512 150.66H7.50461C3.34487 150.66 0.0397671 147.277 0.0397671 143.118C0.0397671 142.162 0.0397671 141.206 0.0397671 140.25C0.0397671 139.857 0.35783 139.539 0.750184 139.539C1.98653 139.539 3.22898 139.539 4.46243 139.539C12.4514 139.782 20.4403 139.693 28.442 139.718C36.8141 139.718 45.1861 139.534 53.554 139.166C54.6078 139.119 54.6125 137.945 53.5591 137.89C36.1129 137.297 18.6421 137.216 1.1467 137.647C0.587698 137.661 0.125443 137.215 0.121373 136.655C0.0443859 126.079 0.114077 115.514 0.0397671 104.925C0.0397671 101.336 -0.0248225 97.7353 0.0238202 94.144C0.0311183 93.6052 0.46695 93.1718 1.00573 93.1627C6.01465 93.0782 11.0178 92.9167 16.0151 92.6783C17.2171 92.6209 17.2334 91.4233 16.031 91.3727C14.4111 91.3046 12.7907 91.2436 11.1731 91.1585C7.77477 90.9944 4.36568 91.0023 0.965538 90.8865C0.443139 90.8687 0.0249658 90.4482 0.0147093 89.9256C-0.0294048 87.6779 0.0397671 85.4301 0.0397671 83.1823V34.8654C0.0397671 32.6337 0.0397671 30.402 0.0397671 28.1193C0.0397671 27.567 0.487476 27.1193 1.03976 27.1193C10.282 27.1189 19.5451 27.1077 28.7487 26.787C29.9058 26.7418 31.0638 26.6983 32.2217 26.6499C33.4309 26.5993 33.4221 25.3379 32.2133 25.2796C21.8727 24.7802 11.4682 24.6854 1.05508 24.8293C0.496865 24.837 0.0397671 24.3869 0.0397671 23.8286C0.0397671 21.0704 0.0397671 18.3136 0.0397671 15.5577C0.0397671 7.27347 6.75551 0.557739 15.0398 0.557739C32.6201 0.557739 50.1582 0.557739 67.6963 0.557739M214.22 13.8002C215.498 14.043 216.891 14.2476 218.246 14.3754C226.785 15.1272 235.366 15.2724 243.926 14.81C244.929 14.7705 245.931 14.7126 246.931 14.6363C248.085 14.5483 248.068 13.1959 246.914 13.1067C241.125 12.6591 235.314 12.5192 229.507 12.6881C224.394 12.8671 219.281 13.1227 214.168 13.8002M70.742 17.711C69.7178 17.7945 69.7004 18.9964 70.7257 19.0665C78.3175 19.6394 85.9373 19.7462 93.5421 19.386C94.7726 19.3345 96.0018 19.2612 97.2293 19.1663C98.3926 19.0763 98.3785 17.6973 97.215 17.6112C88.4021 16.9592 79.5511 16.9925 70.742 17.711ZM61.1646 129.135C60.1514 129.181 60.1611 130.203 61.1741 130.253C70.8179 130.73 80.4736 130.885 90.1292 130.924C99.6318 130.924 109.134 130.778 118.627 130.335C119.833 130.279 119.842 129.117 118.636 129.072C118.277 129.059 117.918 129.046 117.56 129.032C98.77 128.248 79.9716 128.282 61.1646 129.135ZM299.784 136.829C299.784 136.816 299.772 136.805 299.759 136.806C299.536 136.824 299.313 136.843 299.092 136.864C298.359 136.934 298.373 137.846 299.106 137.916C302.301 138.223 305.507 138.41 308.719 138.517C314.943 138.724 321.172 138.597 327.378 138.136C328.538 138.05 328.555 136.688 327.396 136.601C326.114 136.505 324.831 136.436 323.546 136.395C315.633 136.018 307.703 136.171 299.81 136.853C299.796 136.854 299.784 136.843 299.784 136.829Z" fill="black" fill-opacity="0.380392"/>
<path d="M92.2433 50.6C91.5324 50.9162 90.6635 51.408 89.6366 52.0756C88.6097 52.7519 87.7802 53.3667 87.1483 53.92C84.4626 56.0543 82.1718 58.5443 80.2759 61.39L79.565 62.6943C78.3011 64.5914 77.2742 66.5676 76.4843 68.6229C75.4574 71.2314 74.8254 73.7609 74.5885 76.2114C74.5095 76.7648 74.47 77.5552 74.47 78.5829C74.47 80.0057 74.6675 81.5867 75.0624 83.3257C75.2204 83.721 75.3784 84.1952 75.5364 84.7486C75.6944 85.3019 75.8524 85.7367 76.0103 86.0529C76.1683 86.369 76.4053 86.7423 76.7213 87.1727C77.0372 87.6119 77.2742 87.9895 77.4322 88.3057C78.0641 88.9381 78.7751 89.5309 79.565 90.0843L82.5272 91.27L86.0819 91.9814L87.9777 92.2186H89.7551C91.019 92.0605 92.1248 91.8629 93.0728 91.6257L96.3905 90.3214C94.7316 87.5548 93.7047 85.7762 93.3097 84.9857C92.5988 83.8791 91.8879 82.6933 91.1769 81.4286C91.8879 80.7171 93.1913 79.9662 95.0871 79.1757C96.351 78.7014 97.2594 78.3062 97.8123 77.99C97.8913 77.911 98.2248 77.7529 98.8129 77.5157C99.4097 77.2786 99.8266 76.9229 100.064 76.4486C100.143 76.2114 100.2 75.9128 100.235 75.5527C100.279 75.2014 100.38 75.0257 100.538 75.0257C100.775 75.0257 100.933 75.0652 101.012 75.1443C101.328 75.3024 101.661 75.7196 102.012 76.3959C102.372 77.0634 102.67 77.4762 102.907 77.6343C103.223 77.8714 103.539 77.99 103.855 77.99C104.092 77.99 104.527 77.9109 105.159 77.7529C104.843 77.1995 104.465 76.6681 104.026 76.1587C103.596 75.6405 103.32 75.1838 103.197 74.7886C103.083 74.3933 103.144 73.9586 103.381 73.4843L106.936 78.5829C108.121 76.0533 109.029 73.6424 109.661 71.35C110.135 68.7414 110.372 66.2119 110.372 63.7614C110.293 61.0738 109.819 58.7814 108.95 56.8843C108.397 55.9357 108.042 55.2638 107.884 54.8686L107.173 54.0386L106.462 53.09L105.277 52.0229C105.119 51.8648 104.764 51.6671 104.211 51.43L102.433 51.0743C101.328 50.9162 100.419 50.8371 99.7082 50.8371C98.8392 50.6791 96.7854 50.6 93.5467 50.6C93.7047 50.2838 94.0207 50.1081 94.4946 50.073C94.9686 50.0291 95.2846 50.0071 95.4426 50.0071C95.5215 50.0071 95.6576 49.9676 95.8507 49.8886C96.0525 49.8095 96.193 49.7305 96.272 49.6514C96.5089 49.4933 96.6274 49.2562 96.6274 48.94L96.3905 47.8729C95.9165 47.0824 95.403 46.4105 94.8501 45.8571C94.6921 45.3829 94.4946 45.0667 94.2577 44.9086C94.0207 44.7505 93.9022 44.6714 93.9022 44.6714L93.6652 43.13C93.6652 42.7348 93.9022 42.3791 94.3761 42.0629C94.5341 41.9048 94.7887 41.8082 95.1397 41.773C95.4996 41.7291 95.877 41.6281 96.272 41.47C97.2989 41.0748 97.8913 40.8376 98.0493 40.7586C98.1283 40.6795 98.1678 40.4819 98.1678 40.1657C98.1678 39.7705 97.8913 39.2962 97.3384 38.7429C96.3115 38.0314 95.6005 37.32 95.2056 36.6086C94.9686 36.4505 94.8501 36.2529 94.8501 36.0157L95.0871 35.1857C95.1661 35.1067 95.2056 34.909 95.2056 34.5929C95.2056 34.2767 95.1661 34.079 95.0871 34C95.3241 34.079 96.2325 34.1976 97.8123 34.3557C98.3653 34.3557 99.3527 34.4348 100.775 34.5929C102.038 34.5929 103.342 34.7114 104.685 34.9486C105.396 35.0276 106.208 35.1857 107.12 35.4229C108.024 35.66 108.713 35.8576 109.187 36.0157C111.004 36.6481 112.584 37.4386 113.927 38.3871C115.428 39.3357 116.771 40.4424 117.955 41.7071C118.666 42.4186 119.14 42.9324 119.377 43.2486C120.088 44.1971 120.562 44.9086 120.799 45.3829C121.194 45.9362 121.607 46.5905 122.037 47.3459C122.476 48.0924 122.814 48.7029 123.05 49.1771C124.393 52.0229 125.302 54.75 125.776 57.3586C126.25 59.5719 126.487 62.3386 126.487 65.6586C126.487 68.1091 126.171 70.7967 125.539 73.7214L125.42 74.3143C124.63 77.3181 123.959 79.571 123.406 81.0729C121.905 85.4205 119.772 89.3729 117.008 92.93C116.376 93.7205 115.981 94.1948 115.823 94.3529L116.771 96.6057C117.403 97.8705 118.271 99.8467 119.377 102.534C119.772 103.325 120.286 104.51 120.918 106.091C122.182 108.463 123.09 110.834 123.643 113.206C123.485 113.206 123.327 113.087 123.169 112.85C123.011 112.613 122.814 112.494 122.577 112.494C122.261 112.494 121.967 112.534 121.694 112.613C121.414 112.692 121.155 112.771 120.918 112.85L118.429 114.391C118.113 114.47 117.758 114.589 117.363 114.747C116.968 114.905 116.613 114.984 116.297 114.984C116.139 114.905 115.862 114.804 115.467 114.681C115.072 114.567 114.756 114.51 114.519 114.51C113.887 114.589 113.255 114.844 112.623 115.274C111.992 115.713 111.518 116.012 111.202 116.17C110.965 116.328 110.609 116.469 110.135 116.592C109.661 116.706 109.266 116.842 108.95 117C107.765 113.127 106.383 109.53 104.803 106.21C104.724 105.736 104.527 105.261 104.211 104.787C103.579 105.024 102.986 105.279 102.433 105.551C101.88 105.832 101.328 106.052 100.775 106.21C98.0888 107.317 95.6795 108.068 93.5467 108.463C91.6509 108.621 90.3475 108.7 89.6366 108.7H86.2004C84.6205 108.621 82.2508 108.265 79.0911 107.633C76.8003 107.08 74.9044 106.368 73.4036 105.499C71.3498 104.55 69.4934 103.404 67.8346 102.06C66.1757 100.637 64.6749 99.0167 63.332 97.1986C61.9101 95.3014 60.8437 93.3648 60.1328 91.3886C59.5799 90.2029 59.0664 88.2662 58.5924 85.5786C58.1975 83.6814 58 81.6657 58 79.5314C58 76.1324 58.5135 72.4567 59.5404 68.5043C60.4093 64.8681 61.6732 61.5481 63.332 58.5443C65.5438 54.5129 67.4791 51.4695 69.138 49.4143C71.2708 46.6476 73.838 44.0786 76.8398 41.7071C79.6835 39.4938 82.8827 37.5967 86.4374 36.0157H86.9113C87.7803 36.411 88.3727 36.8852 88.6887 37.4386C88.8467 37.9129 88.9256 38.5452 88.9256 39.3357L88.8072 42.0629L89.2811 45.1457C89.4391 45.4619 89.6366 45.6815 89.8736 45.8044C90.1105 45.9186 90.545 46.0152 91.1769 46.0943L92.8358 45.9757H94.2577C94.5736 45.9757 94.7316 46.0943 94.7316 46.3314L93.5467 46.9243L91.1769 47.8729L88.6887 49.1771C86.9508 49.9676 85.4895 50.9952 84.3046 52.26C83.3567 53.4457 82.8432 54.3152 82.7642 54.8686L82.5272 56.6471C83.6331 55.6195 84.6995 54.671 85.7264 53.8014C86.5954 53.09 87.6223 52.4181 88.8072 51.7857C89.5971 51.3114 90.1895 50.9952 90.5845 50.8371C91.3744 50.521 91.9274 50.4419 92.2433 50.6ZM180.399 47.5171C180.636 47.5171 180.873 47.3986 181.11 47.1614V59.4929L180.992 71.9429L180.873 86.8829L180.755 89.3729C180.755 89.8471 180.676 90.7167 180.518 91.9814C180.518 91.9814 180.496 92.021 180.452 92.1C180.417 92.179 180.399 92.3371 180.399 92.5743V94.2343C180.083 95.6571 179.688 97.3171 179.214 99.2143C179.135 99.6886 178.977 100.185 178.74 100.703C178.503 101.212 178.306 101.625 178.148 101.941L176.489 104.55C176.015 105.182 175.225 105.973 174.119 106.921C172.934 107.949 172.065 108.581 171.513 108.819C170.802 109.293 169.893 109.728 168.787 110.123L165.944 110.716C164.443 111.111 162.705 111.309 160.73 111.309H160.019L159.427 111.19H158.242C157.294 111.111 156.425 110.953 155.635 110.716C153.818 110.479 152.001 109.965 150.185 109.174C148.684 108.463 147.341 107.554 146.156 106.447C144.813 105.182 143.747 103.957 142.957 102.771C142.246 101.744 141.574 100.479 140.942 98.9771C140.626 98.4238 140.328 97.7914 140.047 97.08C139.775 96.3686 139.599 95.8548 139.52 95.5386L139.284 95.0643L138.928 93.6414C138.691 93.0881 138.494 92.4162 138.336 91.6257C138.257 91.3095 138.042 90.5015 137.69 89.2016C137.331 87.8929 137.151 86.8038 137.151 85.9343V78.7014C137.151 76.251 137.309 73.5238 137.625 70.52C137.941 67.5162 138.099 65.8957 138.099 65.6586C138.415 61.9433 138.652 59.6114 138.81 58.6629C139.126 55.9752 139.362 53.3271 139.52 50.7186L139.757 50.3629C140.231 49.8886 140.784 49.6514 141.416 49.6514C141.89 49.6514 142.483 49.8095 143.194 50.1257C143.668 50.2838 144.221 50.5429 144.852 50.903C145.484 51.2543 146.077 51.4695 146.63 51.5486C146.788 51.5486 146.985 51.6101 147.222 51.733C147.459 51.8472 147.696 51.9043 147.933 51.9043C148.644 51.9043 149.118 51.43 149.355 50.4814C149.75 49.6119 150.027 48.5448 150.185 47.28C150.264 46.9638 150.382 46.8057 150.54 46.8057L150.777 48.3471C150.856 48.5843 150.895 49.1771 150.895 50.1257C150.895 51.1533 150.856 52.0404 150.777 52.787C150.698 53.5423 150.619 54.1967 150.54 54.75C150.54 55.4614 150.461 56.4495 150.303 57.7143C150.145 59.2952 150.066 60.3229 150.066 60.7971V61.5086C150.066 62.8524 150.202 63.8185 150.474 64.407C150.755 65.0042 150.974 65.461 151.132 65.7771C151.764 61.5876 152.278 57.0029 152.673 52.0229C152.752 50.6 152.87 49.4362 153.028 48.5316C153.186 47.6182 153.384 47.0824 153.621 46.9243C153.621 47.3986 153.621 48.3296 153.621 49.7173C153.621 51.0962 153.542 52.3786 153.384 53.5643L152.791 59.6114C152.475 63.1686 152.001 67.2 151.369 71.7057C151.29 72.6543 151.251 73.9981 151.251 75.7371V78.1086C151.251 78.9781 151.448 81.5867 151.843 85.9343L152.08 89.2543L152.673 90.44C153.226 91.6257 153.502 92.3371 153.502 92.5743C153.739 92.8114 153.954 93.0881 154.147 93.4043C154.349 93.7205 154.569 93.9576 154.806 94.1157C154.885 94.3529 155.021 94.5505 155.214 94.7086C155.416 94.8667 155.595 94.9852 155.753 95.0643C156.938 95.5386 157.531 95.7757 157.531 95.7757C157.768 95.8548 158.439 95.9733 159.545 96.1314L161.204 96.8429C162.073 96.6848 162.705 96.5267 163.1 96.3686L164.403 95.7757C164.956 95.2224 165.272 94.8271 165.351 94.59C165.746 93.7995 165.983 93.2857 166.062 93.0486C166.22 92.1 166.299 91.349 166.299 90.7957C166.378 89.689 166.417 87.9895 166.417 85.6971V75.6186L166.654 71.9429C166.654 60.0067 166.615 52.0229 166.536 47.9914V47.1614C166.931 47.6357 167.207 48.3296 167.365 49.243C167.523 50.1477 167.721 50.6 167.958 50.6C168.511 50.6 169.239 50.1477 170.143 49.243C171.056 48.3296 171.592 47.8729 171.75 47.8729C172.302 47.5567 172.697 47.3986 172.934 47.3986C173.171 47.3986 173.408 47.5567 173.645 47.8729C173.882 48.031 174.159 48.5843 174.475 49.5329C174.791 50.4814 175.107 51.0348 175.423 51.1929C175.502 51.2719 175.66 51.3114 175.897 51.3114C176.213 51.3114 176.546 51.0962 176.897 50.6659C177.257 50.2267 177.573 49.7524 177.845 49.243C178.126 48.7248 178.424 48.2681 178.74 47.8729C178.977 47.5567 179.254 47.3986 179.57 47.3986L180.399 47.5171ZM195.447 50.6C196.158 50.3629 196.869 50.2443 197.58 50.2443C198.291 50.2443 198.884 50.2838 199.357 50.3629C199.831 50.4419 200.226 50.521 200.542 50.6C201.49 50.8371 202.399 50.9557 203.268 50.9557C203.505 50.9557 204.058 50.6791 204.926 50.1257C205.795 49.5724 206.484 49.1991 206.993 49.0059C207.511 48.8039 207.849 48.94 208.007 49.4143C208.165 50.0467 208.244 50.6395 208.244 51.1929L208.126 53.92C208.126 54.4733 208.165 54.8686 208.244 55.1057C208.481 55.7381 208.815 56.2343 209.245 56.5944C209.684 56.9458 210.021 57.24 210.258 57.4771C210.337 56.6867 210.337 55.7952 210.258 54.8027C210.179 53.819 210.14 53.0505 210.14 52.4971C210.14 50.9952 210.416 49.8095 210.969 48.94C210.969 50.0467 211.048 51.8648 211.206 54.3943C211.364 56.7657 211.443 58.6629 211.443 60.0857C211.443 62.7733 211.206 66.9629 210.732 72.6543C210.416 77.3971 210.258 80.5195 210.258 82.0214C209.627 88.1081 209.311 93.839 209.311 99.2143V111.19C208.758 110.241 207.968 109.767 206.941 109.767C206.23 109.767 205.541 109.925 204.874 110.241C204.198 110.558 203.821 110.716 203.742 110.716C203.11 110.874 202.596 110.953 202.201 110.953C202.043 110.953 201.727 110.874 201.253 110.716C201.016 110.479 200.718 110.14 200.358 109.701C200.007 109.271 199.673 109.016 199.357 108.937L198.765 108.819C198.212 108.819 197.602 109.034 196.935 109.464C196.259 109.903 195.842 110.202 195.684 110.36C195.526 110.518 195.25 110.597 194.855 110.597C194.697 110.597 194.42 110.575 194.025 110.531C193.63 110.496 193.275 110.558 192.959 110.716C193.038 105.42 193.315 97.7124 193.788 87.5943L194.262 79.8871C194.341 78.2271 194.578 73.9981 194.973 67.2C195.368 60.4019 195.526 54.9081 195.447 50.7186V50.6ZM266.304 93.9971C267.568 93.9971 268.2 94.59 268.2 95.7757C268.2 97.3567 268.437 98.7005 268.911 99.8071V101.111C268.911 101.744 268.871 102.139 268.792 102.297C268.634 102.613 268.459 102.947 268.265 103.298C268.064 103.659 267.923 103.997 267.844 104.313C267.765 104.392 267.726 104.629 267.726 105.024C267.726 105.578 267.866 106.17 268.147 106.803C268.419 107.435 268.595 107.87 268.674 108.107V110.953C266.778 110.953 263.934 110.874 260.142 110.716L252.322 110.597C250.9 110.597 248.609 110.518 245.45 110.36C240.71 110.202 237.155 110.123 234.786 110.123H232.653C232.495 109.016 232.416 108.305 232.416 107.989V107.277C231.468 107.119 230.994 107.04 230.994 107.04C229.888 106.882 229.217 106.487 228.98 105.854C228.822 105.696 228.686 105.34 228.572 104.787C228.449 104.234 228.308 103.878 228.15 103.72C227.755 103.325 227.242 103.127 226.61 103.127L224.359 103.364L222.107 102.297C224.793 96.2895 226.965 91.7048 228.624 88.5429C230.283 85.381 232.078 82.4386 234.009 79.7159C235.949 76.9843 239.328 72.4962 244.146 66.2514H227.795C227.637 65.7771 227.558 65.3029 227.558 64.8286C227.558 64.3543 227.558 64.0381 227.558 63.88L228.032 56.2914C228.032 55.8171 227.913 55.3429 227.676 54.8686C227.518 54.6314 227.299 54.4338 227.018 54.2757C226.746 54.1176 226.61 53.9595 226.61 53.8014C226.61 53.5643 226.768 53.4062 227.084 53.3271L230.52 52.9714C230.994 52.7343 231.332 52.3786 231.534 51.9043C231.727 51.43 231.863 51.1138 231.942 50.9557C231.626 50.9557 230.797 50.9162 229.454 50.8371C228.111 50.7581 227.163 50.521 226.61 50.1257L233.719 49.2957H236.208C238.498 49.2957 240.789 49.4143 243.08 49.6514C245.134 49.8095 246.714 49.8886 247.819 49.8886C251.137 50.0467 253.625 50.1257 255.284 50.1257C256.706 50.1257 257.852 50.0862 258.72 50.0071C260.932 49.691 263.421 49.5329 266.185 49.5329C265.632 49.6119 265.356 50.1257 265.356 51.0743C265.356 52.26 265.632 53.6829 266.185 55.3429L266.304 57.1214C266.304 57.5167 266.264 57.7538 266.185 57.8329C266.027 58.149 265.83 58.4872 265.593 58.8473C265.356 59.1986 265.237 59.5324 265.237 59.8486C265.158 59.9276 265.119 60.1648 265.119 60.56C265.119 61.0343 265.277 61.5876 265.593 62.22C265.909 62.8524 266.106 63.3267 266.185 63.6429L266.304 66.4886C264.487 66.4886 263.144 66.5281 262.275 66.6071L260.616 68.86C259.51 70.441 258.602 71.6267 257.891 72.4171C257.496 72.8914 255.719 75.0477 252.559 78.8859C249.399 82.7153 245.924 87.4757 242.132 93.1671H249.241C251.295 93.1671 253.507 93.2857 255.877 93.5229C258.247 93.76 259.826 93.9181 260.616 93.9971H266.304ZM260.024 66.0143C260.498 65.3819 261.288 64.5914 262.394 63.6429H260.024C259.866 63.959 259.787 64.2752 259.787 64.5914L260.024 66.0143ZM281.589 50.6C282.3 50.3629 283.011 50.2443 283.722 50.2443C284.433 50.2443 285.025 50.2838 285.499 50.3629C285.973 50.4419 286.368 50.521 286.684 50.6C287.632 50.8371 288.54 50.9557 289.409 50.9557C289.646 50.9557 290.199 50.6791 291.068 50.1257C291.937 49.5724 292.626 49.1991 293.135 49.0059C293.653 48.8039 293.991 48.94 294.149 49.4143C294.307 50.0467 294.386 50.6395 294.386 51.1929L294.267 53.92C294.267 54.4733 294.307 54.8686 294.386 55.1057C294.623 55.7381 294.956 56.2343 295.386 56.5944C295.825 56.9458 296.163 57.24 296.4 57.4771C296.479 56.6867 296.479 55.7952 296.4 54.8027C296.321 53.819 296.282 53.0505 296.282 52.4971C296.282 50.9952 296.558 49.8095 297.111 48.94C297.111 50.0467 297.19 51.8648 297.348 54.3943C297.506 56.7657 297.585 58.6629 297.585 60.0857C297.585 62.7733 297.348 66.9629 296.874 72.6543C296.558 77.3971 296.4 80.5195 296.4 82.0214C295.768 88.1081 295.452 93.839 295.452 99.2143V111.19C294.899 110.241 294.109 109.767 293.082 109.767C292.371 109.767 291.678 109.925 291.002 110.241C290.335 110.558 289.962 110.716 289.883 110.716C289.251 110.874 288.738 110.953 288.343 110.953C288.185 110.953 287.869 110.874 287.395 110.716C287.158 110.479 286.859 110.14 286.5 109.701C286.149 109.271 285.815 109.016 285.499 108.937L284.907 108.819C284.354 108.819 283.739 109.034 283.063 109.464C282.396 109.903 281.984 110.202 281.826 110.36C281.668 110.518 281.391 110.597 280.996 110.597C280.838 110.597 280.562 110.575 280.167 110.531C279.772 110.496 279.417 110.558 279.101 110.716C279.18 105.42 279.456 97.7124 279.93 87.5943L280.404 79.8871C280.483 78.2271 280.72 73.9981 281.115 67.2C281.51 60.4019 281.668 54.9081 281.589 50.7186V50.6ZM355.526 60.7971C355.526 61.1924 353.907 62.7338 350.668 65.4214C347.113 68.5043 344.546 70.8757 342.966 72.5357C341.939 73.5633 340.557 75.1838 338.819 77.3971L339.175 78.5829L344.033 87.2386C346.244 91.191 348.456 94.511 350.668 97.1986C351.774 98.5424 352.643 99.671 353.275 100.584C353.907 101.489 354.657 102.811 355.526 104.55L355.052 104.669C354.815 104.669 354.46 104.59 353.986 104.431C353.512 104.273 353.038 104.313 352.564 104.55C352.169 104.787 351.537 105.182 350.668 105.736C349.799 106.289 349.128 106.605 348.654 106.684C348.496 106.684 348.237 106.645 347.877 106.566C347.526 106.487 347.034 106.447 346.402 106.447C345.533 106.684 344.783 107.08 344.151 107.633C343.519 108.186 343.164 108.502 343.085 108.581C342.69 108.74 342.233 108.898 341.716 109.056C341.206 109.214 340.794 109.411 340.478 109.649L339.293 107.514C338.345 105.775 337.595 104.51 337.042 103.72L332.895 95.8943C330.841 92.3371 329.024 88.78 327.444 85.2229V89.7286C327.444 92.8905 327.484 95.3014 327.563 96.9614C327.879 100.44 328.037 104.392 328.037 108.819C327.879 108.74 327.642 108.485 327.326 108.054C327.01 107.615 326.654 107.396 326.259 107.396C325.311 107.396 324.346 107.615 323.363 108.054C322.371 108.485 321.836 108.7 321.757 108.7C321.441 108.779 320.927 108.819 320.216 108.819C319.663 108.819 319.308 108.779 319.15 108.7C318.913 108.542 318.694 108.265 318.492 107.87C318.299 107.475 318.044 107.198 317.728 107.04H317.254C316.701 107.04 316.267 107.277 315.951 107.751C315.635 108.226 315.279 108.542 314.884 108.7H313.699C313.541 108.7 313.146 108.779 312.515 108.937V86.4086C312.515 84.8276 312.436 82.3771 312.278 79.0571C312.041 76.6857 311.922 74.2748 311.922 71.8243V66.9629L311.804 51.0743C312.436 50.7581 313.265 50.6 314.292 50.6C315.003 50.6 315.635 50.7186 316.188 50.9557C316.741 51.1929 317.333 51.3114 317.965 51.3114L319.268 51.43C319.9 51.43 320.493 51.2324 321.046 50.8371C321.204 50.6 321.401 50.2619 321.638 49.8227C321.875 49.3923 322.073 49.1771 322.231 49.1771C322.389 49.1771 322.586 49.4143 322.823 49.8886C322.902 50.0467 322.942 50.4419 322.942 51.0743L322.823 53.8014C322.823 54.1176 322.902 54.671 323.06 55.4614C323.297 56.0148 323.67 56.4495 324.179 56.7657C324.697 57.0819 325.114 57.3586 325.43 57.5957L325.311 52.9714C325.311 51.0743 325.548 49.8095 326.022 49.1771C326.18 50.7581 326.259 51.8648 326.259 52.4971C326.575 55.7381 326.852 58.3071 327.089 60.2043V57.8329L327.207 72.8914C329.182 69.7295 332.184 65.461 336.212 60.0857C340.241 54.7105 343.006 51.351 344.507 50.0071C345.06 50.2443 345.827 50.4814 346.811 50.7186C347.802 50.9557 348.456 51.2719 348.772 51.6671L351.497 54.5129C351.734 54.75 352.09 55.1057 352.564 55.58C353.038 56.0543 353.591 56.331 354.223 56.41H355.526C355.842 56.41 356 56.489 356 56.6471C356 56.8843 355.465 57.5386 354.394 58.6102C353.332 59.6729 352.801 60.3624 352.801 60.6786C352.801 61.311 353.038 61.6271 353.512 61.6271C353.67 61.6271 353.986 61.5086 354.46 61.2714C354.934 61.0343 355.289 60.8762 355.526 60.7971ZM336.568 80.0057C336.805 80.1638 337.121 80.2648 337.516 80.3087C337.911 80.3439 338.227 80.3614 338.464 80.3614C338.306 79.8871 338.227 79.4129 338.227 78.9386C338.227 78.4643 338.227 78.1481 338.227 77.99C337.595 78.6224 337.042 79.2943 336.568 80.0057Z" fill="white"/>
</svg>
