<svg width="3000" height="1575" viewBox="0 0 3000 1575" fill="none" xmlns="http://www.w3.org/2000/svg">
<path fill-rule="evenodd" clip-rule="evenodd" d="M2875 0H125C55.9644 0 0 55.9644 0 125V1450C0 1519.04 55.9644 1575 125 1575H2875C2944.04 1575 3000 1519.04 3000 1450V125C3000 55.9644 2944.04 0 2875 0ZM462.802 427.35C447.695 430.853 430.29 432.277 410.588 431.62C413.215 402.502 416.39 373.057 420.111 343.28C453.826 340.433 478.129 345.797 493.016 359.371C507.028 372.507 508.232 388.927 496.629 408.629C491.813 417.167 480.536 423.409 462.802 427.35ZM405.332 611.91C404.237 585.201 403.8 557.396 404.019 528.496C422.19 527.402 436.749 528.058 447.695 530.467C468.493 534.626 482.725 540.757 490.386 548.857C497.391 556.301 498.595 564.511 493.998 573.487C490.057 581.806 481.847 589.468 469.368 596.474C456.67 603.48 442.44 608.187 426.678 610.595C419.234 611.689 412.119 612.129 405.332 611.91ZM635.209 544.917C630.173 530.029 623.607 517.879 615.506 508.464C608.5 500.145 598.101 491.606 584.308 482.849C568.326 472.997 555.956 468.619 547.2 469.713L547.857 469.385H548.185C560.664 468.071 573.034 461.503 585.294 449.681C601.495 434.137 611.237 415.965 614.521 395.167C617.586 376.119 615.068 356.851 606.967 337.367C599.305 318.32 587.702 301.9 572.156 288.109C555.955 273.659 538.222 264.136 518.957 259.538C495.75 254.284 464.335 251.547 424.708 251.328C381.139 251.109 335.274 251 287.109 251C286.89 251 284.701 251.109 280.541 251.328H274.63L268.062 251.657C256.24 251.876 250.219 251.657 250 251C273.864 348.427 282.074 453.84 274.63 567.247C272.222 605.562 268.062 642.671 262.151 678.572C260.18 691.708 257.991 703.858 255.583 715.024C253.832 723.782 252.19 730.787 250.657 736.042H427.005C485.898 736.042 536.141 724.548 577.739 701.56C630.501 672.004 652.177 629.64 642.762 574.47C641.01 563.961 638.493 554.112 635.209 544.917ZM889.292 440.815C886.883 413.667 885.57 385.315 885.35 355.76C911.622 354.446 933.845 356.636 952.014 362.328C974.565 369.552 984.963 381.046 983.212 396.81C979.053 434.248 947.747 448.916 889.292 440.815ZM1168.11 600.746C1163.51 607.751 1157.71 613.991 1150.71 619.464C1136.7 630.63 1123.45 632.71 1110.97 625.704C1104.19 622.201 1098.06 616.29 1092.58 607.971C1088.42 602.06 1084.15 594.288 1079.77 584.654C1079.77 584.435 1078.24 580.823 1075.18 573.817L1066.64 554.113L1057.44 534.738C1051.97 523.572 1045.73 513.392 1038.72 504.197C1058.65 497.848 1072.22 493.032 1079.44 489.748C1099.59 480.99 1114.69 467.088 1124.77 448.042C1133.52 431.841 1137.9 413.89 1137.9 394.184C1137.9 389.586 1137.68 384.879 1137.24 380.063C1136.59 373.276 1135.49 366.599 1133.96 360.031C1130.02 342.078 1123.23 326.097 1113.6 312.084C1085.8 271.583 1037.96 251.332 970.089 251.332H738.898C762.761 413.341 762.542 572.942 738.241 730.126C738.022 731.22 737.803 732.206 737.584 733.081V734.067H931.997C916.672 670.796 906.601 603.473 901.784 532.101L908.023 534.071C928.384 542.39 943.161 556.949 952.358 577.747C955.861 585.848 958.926 595.48 961.554 606.646L964.509 621.753L967.136 636.53L969.435 648.024L971.734 659.518C973.485 668.057 975.346 675.61 977.317 682.178C982.571 698.598 989.577 711.953 998.334 722.242C1021.98 750.484 1051.43 762.199 1086.67 757.38C1103.53 754.972 1118.75 748.623 1132.32 738.333C1145.89 727.824 1156.4 714.469 1163.85 698.269C1166.26 692.577 1168.34 686.556 1170.09 680.207C1175.56 659.409 1175.89 636.857 1171.07 612.558L1168.11 600.746ZM1462.9 380.059C1479.76 428.884 1492.57 474.745 1501.33 517.658C1476.81 526.196 1450.75 528.386 1423.17 524.226C1432.15 479.343 1445.39 431.288 1462.9 380.059ZM1693.1 736.044C1692.66 734.073 1674.54 681.093 1638.75 577.098C1602.95 473.104 1590.53 364.735 1601.47 251.984H1324.64C1329.01 382.467 1314.89 495.272 1282.27 590.381C1249.65 685.491 1233.12 734.057 1232.68 736.027H1424.8C1414.29 706.034 1409.58 670.241 1410.68 628.64C1450.96 640.243 1485.77 639.367 1515.11 626.012C1516.42 668.703 1511.82 705.378 1501.31 736.026L1693.1 736.044ZM2059.5 251.971C2062.35 262.698 2065.96 289.849 2070.34 333.414C2075.38 383.769 2078.55 430.727 2079.86 474.298C2047.9 433.141 2025.57 396.466 2012.87 364.285C2001.71 336.699 1993.39 300.247 1987.91 254.927H1806.31C1825.79 345.564 1830.06 452.729 1819.12 576.426C1815.83 615.175 1811.13 653.38 1805 691.037C1803.03 702.64 1801.05 713.586 1799.08 723.876C1798.43 727.16 1797.88 730.116 1797.44 732.743L1797.11 734.056V735.041L1796.79 735.698V736.027H1963.94C1947.74 694.87 1939.31 647.36 1938.65 593.502C1938.65 576.206 1939.31 559.897 1940.62 544.57C1941.28 539.096 1941.94 534.608 1942.59 531.105C1942.99 528.146 1943.29 526.698 1943.51 526.761C1943.52 526.768 1943.52 526.777 1943.53 526.786C1943.54 526.8 1943.56 526.817 1943.58 526.836C1943.56 526.793 1943.53 526.768 1943.51 526.761C1943.43 526.656 1943.68 526.791 1944.24 527.164L1946.21 529.134C1948.61 531.762 1951.35 534.936 1954.42 538.658C1964.05 550.261 1973.57 563.616 1982.99 578.722C1996.12 599.302 2007.84 621.305 2018.12 644.73C2031.04 674.067 2041.33 704.497 2048.99 736.023H2230.27L2229.94 735.695V735.038L2229.28 732.411C2228.84 729.127 2228.3 725.624 2227.64 721.902C2225.45 710.08 2223.37 697.491 2221.4 684.138C2215.05 641.447 2210.24 599.413 2206.95 558.034C2196.66 425.58 2204 323.556 2228.95 251.966L2059.5 251.971ZM2495.85 593.519C2494.09 575.786 2493 555.974 2492.56 534.078C2491.03 472.119 2494.97 421.987 2504.38 383.671C2505.26 379.949 2510.3 379.292 2519.49 381.701C2522.77 382.576 2526.93 383.89 2531.97 385.642L2537.88 387.612C2540.29 388.488 2542.04 389.145 2543.14 389.582C2571.38 399.434 2591.41 417.058 2603.23 442.455C2613.96 465.662 2616.48 491.165 2610.78 518.972C2604.87 546.339 2592.39 569.216 2573.35 587.607C2552.55 607.53 2527.92 617.491 2499.46 617.491C2498.36 617.491 2497.16 609.501 2495.85 593.519ZM2727.36 387.928C2700.65 327.284 2656.53 287.331 2595.01 268.062C2556.7 255.802 2495.84 249.891 2412.43 250.328H2373.35H2364.15L2354.63 250H2333.94C2357.8 347.427 2366.01 452.729 2358.57 565.917C2356.16 604.011 2352 641.012 2346.09 676.916C2344.12 689.833 2341.93 701.984 2339.52 713.369C2337.77 721.907 2336.13 728.913 2334.6 734.386C2410.57 735.919 2448.44 736.357 2448.22 735.7H2538.86C2577.61 735.7 2611.98 727.709 2641.98 711.727C2673.72 694.869 2698.57 670.022 2716.52 637.181C2743.23 587.922 2753.96 533.186 2748.7 472.982C2745.86 442.332 2738.74 413.98 2727.36 387.928ZM396.382 1052.14C414.342 1052.74 430.207 1051.44 443.977 1048.25C460.143 1044.66 470.422 1038.97 474.812 1031.19C485.389 1013.23 484.291 998.258 471.519 986.284C457.949 973.911 435.796 969.022 405.063 971.617C401.671 998.76 398.777 1025.6 396.382 1052.14ZM390.395 1140.45C390.195 1166.79 390.593 1192.14 391.591 1216.48C397.778 1216.68 404.263 1216.28 411.049 1215.29C425.416 1213.09 438.388 1208.8 449.963 1202.41C461.338 1196.03 468.822 1189.04 472.414 1181.46C476.605 1173.28 475.507 1165.79 469.121 1159.01C462.138 1151.62 449.166 1146.04 430.207 1142.25C420.229 1140.05 406.958 1139.45 390.395 1140.45ZM583.173 1122.19C590.557 1130.77 596.543 1141.85 601.133 1155.42C604.127 1163.8 606.422 1172.78 608.018 1182.36C616.601 1232.65 596.842 1271.26 548.747 1298.2C510.829 1319.16 465.03 1329.64 411.347 1329.64H250.599C251.996 1324.85 253.493 1318.46 255.089 1310.48C257.284 1300.3 259.28 1289.22 261.076 1277.25C266.464 1244.52 270.256 1210.7 272.451 1175.77C279.236 1072.4 271.753 976.308 250 887.5C250.2 888.099 255.688 888.298 266.464 888.099L272.451 887.799H277.839C281.631 887.6 283.627 887.5 283.826 887.5C327.731 887.5 369.539 887.6 409.253 887.799C445.375 887.999 474.011 890.493 495.165 895.283C512.726 899.474 528.89 908.155 543.658 921.326C557.829 933.897 568.405 948.865 575.39 966.227C582.774 983.987 585.069 1001.55 582.275 1018.91C579.282 1037.87 570.401 1054.44 555.633 1068.61C544.459 1079.38 533.183 1085.37 521.808 1086.57H521.508L520.91 1086.87C528.891 1085.87 540.167 1089.86 554.735 1098.84C567.308 1106.82 576.787 1114.61 583.173 1122.19ZM912.367 1130.57C904.384 1091.45 892.71 1049.65 877.343 1005.14C861.379 1051.84 849.305 1095.64 841.123 1136.56C866.268 1140.35 890.016 1138.35 912.367 1130.57ZM1037.63 1184.75C1070.26 1279.55 1086.77 1327.84 1087.17 1329.64L912.356 1329.62C921.935 1301.68 926.126 1268.25 924.928 1229.34C898.187 1241.51 866.454 1242.31 829.735 1231.73C828.737 1269.65 833.028 1302.28 842.607 1329.62H667.488C667.887 1327.83 682.954 1283.56 712.69 1196.86C742.426 1110.16 755.298 1007.34 751.306 888.397H1003.66C993.678 991.174 1005 1089.96 1037.63 1184.75ZM1100.87 1019.2L1100.87 888.385L1467.27 888.386V1018C1455.09 1005.63 1441.12 995.452 1425.36 987.469C1394.03 971.704 1369.88 974.697 1352.92 996.45C1344.14 1008.02 1338.95 1023.39 1337.35 1042.55C1336.55 1049.93 1336.35 1058.41 1336.75 1067.99L1337.35 1080.27L1338.25 1092.54C1341.64 1147.22 1346.43 1194.32 1352.62 1233.83C1352.82 1234.43 1353.22 1236.53 1353.81 1240.12L1354.11 1242.51L1354.41 1245.51L1355.61 1252.09C1357.41 1264.47 1359.1 1275.34 1360.7 1284.72C1365.49 1314.66 1368.58 1329.62 1369.98 1329.62H1203.84L1212.82 1282.63C1216.41 1264.86 1219.31 1249.1 1221.5 1235.33C1227.49 1199.8 1231.28 1168.07 1232.88 1140.14C1233.08 1136.54 1233.38 1131.45 1233.78 1124.87L1234.97 1108.4C1235.77 1095.23 1236.17 1083.96 1236.17 1074.58C1236.17 1048.04 1232.68 1026.58 1225.69 1010.22C1214.92 985.073 1196.66 972.501 1170.91 972.501C1157.94 972.501 1144.87 976.891 1131.7 985.672C1118.93 994.454 1108.65 1005.63 1100.87 1019.2ZM1540.82 1019.2L1540.82 888.385L1907.22 888.386V1018C1895.05 1005.63 1881.08 995.452 1865.31 987.469C1833.98 971.704 1809.83 974.697 1792.87 996.45C1784.09 1008.02 1778.9 1023.39 1777.3 1042.55C1776.5 1049.93 1776.3 1058.41 1776.7 1067.99L1777.3 1080.27L1778.2 1092.54C1781.59 1147.22 1786.38 1194.32 1792.57 1233.83C1792.77 1234.43 1793.17 1236.53 1793.77 1240.12L1794.06 1242.51L1794.36 1245.51L1795.56 1252.09C1797.36 1264.47 1799.05 1275.34 1800.65 1284.72C1805.44 1314.66 1808.53 1329.62 1809.93 1329.62H1643.79L1652.77 1282.63C1656.37 1264.86 1659.26 1249.1 1661.45 1235.33C1667.44 1199.8 1671.23 1168.07 1672.83 1140.14C1673.03 1136.54 1673.33 1131.45 1673.73 1124.87L1674.92 1108.4C1675.72 1095.23 1676.12 1083.96 1676.12 1074.58C1676.12 1048.04 1672.63 1026.58 1665.64 1010.22C1654.87 985.073 1636.61 972.501 1610.86 972.501C1597.89 972.501 1584.82 976.891 1571.65 985.672C1558.88 994.454 1548.6 1005.63 1540.82 1019.2ZM2139.72 1164.1C2141.32 1178.27 2144.31 1190.24 2148.7 1200.02C2159.48 1224.97 2178.64 1237.44 2206.18 1237.44C2221.15 1237.44 2236.62 1232.25 2252.58 1221.87C2265.35 1213.69 2278.13 1202.31 2290.9 1187.75C2305.47 1170.98 2317.34 1154.32 2326.52 1137.75V1329.64H1999.33C2000.73 1324.85 2002.22 1318.56 2003.82 1310.78C2006.01 1300.4 2008.01 1289.32 2009.81 1277.55C2015.19 1244.82 2018.99 1211 2021.18 1176.07C2027.97 1072.89 2020.48 977.005 1998.73 888.399H2170.26C2170.06 889.397 2169.36 892.69 2168.16 898.278C2167.36 901.471 2166.76 904.165 2166.36 906.36C2165.57 909.952 2164.77 913.445 2163.97 916.837C2159.78 936.198 2156.09 955.155 2152.89 973.714C2142.72 1032.19 2137.63 1083.18 2137.63 1126.68C2137.63 1141.05 2138.32 1153.52 2139.72 1164.1ZM2573.09 1182.66C2576.08 1195.43 2583.56 1205.81 2595.54 1213.79C2609.31 1222.77 2627.48 1227.26 2650.03 1227.26C2665.2 1227.26 2679.47 1222.67 2692.84 1213.49C2705.62 1204.71 2716.49 1192.54 2725.47 1176.97C2727.27 1238.84 2735.05 1289.73 2748.82 1329.64H2421.63C2423.03 1325.05 2424.52 1318.56 2426.12 1310.18C2428.31 1299.41 2430.31 1287.83 2432.11 1275.46C2437.49 1241.53 2441.29 1206.71 2443.48 1170.99C2450.27 1065.62 2442.78 971.419 2421.03 888.401H2749.7V889C2749.5 889.798 2749.4 890.596 2749.4 891.395C2748.8 893.789 2748.3 896.484 2747.9 899.477C2746.11 908.857 2744.41 918.935 2742.82 929.711C2737.63 963.837 2733.54 997.865 2730.54 1031.79C2721.96 1013.43 2710.69 998.86 2696.72 988.084C2682.35 976.908 2666.78 971.32 2650.02 971.32C2626.47 971.32 2605.81 981.697 2588.05 1002.45C2570.49 1023.01 2560.01 1048.75 2556.62 1079.68C2571.39 1068.71 2586.46 1061.02 2601.82 1056.63C2621.98 1050.85 2641.84 1050.94 2661.39 1056.93C2679.16 1062.32 2691.23 1070.2 2697.61 1080.58C2703.8 1089.56 2706.89 1099.54 2706.89 1110.51C2706.89 1124.68 2701.91 1136.86 2691.93 1147.03C2681.75 1157.21 2669.48 1162.3 2655.11 1162.3C2643.13 1162.3 2632.46 1158.51 2623.08 1150.93C2613.7 1143.54 2607.61 1134.16 2604.82 1122.79C2592.64 1127.78 2583.56 1136.06 2577.58 1147.63C2571.79 1158.81 2570.29 1170.48 2573.09 1182.66Z" fill="white"/>
</svg>
