<svg width="800" height="800" viewBox="0 0 800 800" fill="none" xmlns="http://www.w3.org/2000/svg">
<path d="M400 500C455.228 500 500 455.228 500 400C500 344.772 455.228 300 400 300C344.772 300 300 344.772 300 400C300 455.228 344.772 500 400 500Z" stroke="white" stroke-width="50"/>
<path d="M458.847 71.7414C446.593 66.6667 431.063 66.6667 400 66.6667C368.937 66.6667 353.407 66.6667 341.153 71.7414C324.819 78.5077 311.841 91.486 305.074 107.821C301.986 115.278 300.777 123.95 300.304 136.6C299.609 155.189 290.075 172.396 273.965 181.698C257.855 190.999 238.186 190.651 221.74 181.959C210.548 176.043 202.434 172.754 194.431 171.701C176.901 169.393 159.173 174.143 145.145 184.907C134.625 192.979 126.859 206.43 111.328 233.331C95.7963 260.232 88.0307 273.683 86.2997 286.83C83.992 304.36 88.7423 322.089 99.506 336.117C104.419 342.52 111.323 347.9 122.04 354.633C137.793 364.533 147.93 381.397 147.929 400C147.928 418.603 137.792 435.463 122.039 445.36C111.322 452.097 104.416 457.48 99.5027 463.883C88.739 477.91 83.9887 495.637 86.2967 513.167C88.0274 526.313 95.793 539.767 111.324 566.667C126.856 593.567 134.622 607.02 145.142 615.09C159.169 625.853 176.898 630.603 194.428 628.297C202.43 627.243 210.544 623.953 221.735 618.04C238.182 609.347 257.852 609 273.963 618.3C290.075 627.603 299.609 644.81 300.304 663.403C300.777 676.05 301.986 684.723 305.074 692.18C311.841 708.513 324.819 721.493 341.153 728.26C353.407 733.333 368.937 733.333 400 733.333C431.063 733.333 446.593 733.333 458.847 728.26C475.18 721.493 488.16 708.513 494.923 692.18C498.013 684.723 499.223 676.05 499.697 663.4C500.39 644.81 509.923 627.603 526.033 618.3C542.143 608.997 561.813 609.347 578.263 618.04C589.453 623.953 597.567 627.24 605.567 628.293C623.097 630.603 640.827 625.853 654.853 615.09C665.373 607.017 673.14 593.567 688.67 566.663C704.203 539.763 711.97 526.313 713.7 513.167C716.007 495.637 711.257 477.907 700.493 463.88C695.58 457.477 688.673 452.093 677.957 445.36C662.207 435.463 652.07 418.6 652.07 399.997C652.07 381.393 662.207 364.537 677.957 354.64C688.677 347.903 695.583 342.523 700.497 336.117C711.26 322.091 716.01 304.362 713.703 286.832C711.973 273.685 704.207 260.234 688.673 233.333C673.143 206.432 665.377 192.982 654.857 184.909C640.83 174.145 623.1 169.395 605.57 171.703C597.57 172.756 589.457 176.045 578.263 181.96C561.817 190.653 542.147 191.001 526.037 181.699C509.923 172.397 500.39 155.189 499.697 136.598C499.223 123.949 498.013 115.278 494.923 107.821C488.16 91.486 475.18 78.5077 458.847 71.7414Z" stroke="white" stroke-width="50"/>
</svg>
