<?xml version="1.0" encoding="UTF-8"?>
<svg xmlns="http://www.w3.org/2000/svg" xmlns:xlink="http://www.w3.org/1999/xlink" width="120px" height="120px" viewBox="0 0 120 120" version="1.1">
<g id="surface1">
<path style=" stroke:none;fill-rule:evenodd;fill:rgb(100%,100%,100%);fill-opacity:1;" d="M 115 0 L 5 0 C 2.238281 0 0 4.265625 0 9.523438 L 0 110.476562 C 0 115.738281 2.238281 120 5 120 L 115 120 C 117.761719 120 120 115.738281 120 110.476562 L 120 9.523438 C 120 4.265625 117.761719 0 115 0 Z M 18.511719 32.558594 C 17.90625 32.828125 17.210938 32.933594 16.421875 32.886719 C 16.527344 30.667969 16.65625 28.421875 16.804688 26.15625 C 18.152344 25.9375 19.125 26.347656 19.71875 27.378906 C 20.28125 28.382812 20.328125 29.632812 19.863281 31.132812 C 19.671875 31.785156 19.222656 32.257812 18.511719 32.558594 Z M 16.214844 46.621094 C 16.167969 44.585938 16.152344 42.46875 16.160156 40.265625 C 16.886719 40.183594 17.46875 40.234375 17.90625 40.417969 C 18.738281 40.734375 19.308594 41.199219 19.617188 41.816406 C 19.894531 42.386719 19.945312 43.011719 19.761719 43.695312 C 19.601562 44.328125 19.273438 44.910156 18.773438 45.445312 C 18.265625 45.980469 17.699219 46.339844 17.066406 46.523438 C 16.769531 46.605469 16.484375 46.636719 16.214844 46.621094 Z M 25.410156 41.515625 C 25.207031 40.382812 24.945312 39.457031 24.621094 38.738281 C 24.339844 38.105469 23.925781 37.457031 23.371094 36.789062 C 22.734375 36.039062 22.238281 35.703125 21.886719 35.789062 L 21.914062 35.761719 L 21.925781 35.761719 C 22.425781 35.664062 22.921875 35.164062 23.410156 34.261719 C 24.058594 33.078125 24.449219 31.691406 24.582031 30.109375 C 24.703125 28.65625 24.601562 27.1875 24.277344 25.703125 C 23.972656 24.253906 23.507812 23 22.886719 21.949219 C 22.238281 20.851562 21.527344 20.125 20.757812 19.773438 C 19.828125 19.375 18.574219 19.164062 16.988281 19.148438 C 15.246094 19.132812 13.410156 19.125 11.484375 19.125 C 11.476562 19.125 11.386719 19.132812 11.222656 19.148438 L 10.984375 19.148438 L 10.722656 19.175781 C 10.25 19.191406 10.007812 19.175781 10 19.125 C 10.953125 26.546875 11.28125 34.578125 10.984375 43.21875 C 10.890625 46.136719 10.722656 48.964844 10.484375 51.699219 C 10.40625 52.703125 10.320312 53.628906 10.222656 54.476562 C 10.152344 55.144531 10.085938 55.679688 10.027344 56.078125 L 17.082031 56.078125 C 19.4375 56.078125 21.445312 55.203125 23.109375 53.453125 C 25.21875 51.199219 26.085938 47.972656 25.710938 43.769531 C 25.640625 42.96875 25.539062 42.21875 25.410156 41.515625 Z M 35.570312 33.585938 C 35.476562 31.515625 35.421875 29.355469 35.414062 27.105469 C 36.464844 27.003906 37.355469 27.171875 38.082031 27.605469 C 38.984375 28.15625 39.398438 29.03125 39.328125 30.234375 C 39.164062 33.085938 37.910156 34.203125 35.570312 33.585938 Z M 46.722656 45.769531 C 46.539062 46.304688 46.308594 46.78125 46.027344 47.195312 C 45.46875 48.046875 44.9375 48.207031 44.4375 47.671875 C 44.167969 47.40625 43.921875 46.957031 43.703125 46.320312 C 43.535156 45.871094 43.367188 45.277344 43.191406 44.546875 C 43.191406 44.527344 43.128906 44.253906 43.007812 43.71875 L 42.664062 42.21875 L 42.296875 40.742188 C 42.078125 39.890625 41.828125 39.117188 41.546875 38.414062 C 42.347656 37.929688 42.890625 37.5625 43.175781 37.3125 C 43.984375 36.648438 44.585938 35.585938 44.992188 34.136719 C 45.339844 32.902344 45.515625 31.535156 45.515625 30.03125 C 45.515625 29.683594 45.507812 29.324219 45.488281 28.957031 C 45.464844 28.441406 45.417969 27.929688 45.359375 27.429688 C 45.199219 26.0625 44.929688 24.84375 44.542969 23.777344 C 43.433594 20.691406 41.519531 19.148438 38.804688 19.148438 L 29.554688 19.148438 C 30.511719 31.492188 30.5 43.652344 29.53125 55.628906 C 29.519531 55.710938 29.511719 55.789062 29.503906 55.855469 L 29.503906 55.929688 L 37.28125 55.929688 C 36.667969 51.109375 36.265625 45.980469 36.070312 40.542969 L 36.320312 40.691406 C 37.136719 41.324219 37.726562 42.433594 38.09375 44.019531 C 38.234375 44.636719 38.355469 45.371094 38.460938 46.21875 L 38.582031 47.371094 L 38.683594 48.496094 L 38.777344 49.375 L 38.871094 50.25 C 38.9375 50.898438 39.015625 51.476562 39.09375 51.976562 C 39.304688 53.226562 39.582031 54.242188 39.933594 55.027344 C 40.878906 57.179688 42.058594 58.074219 43.46875 57.707031 C 44.140625 57.523438 44.75 57.039062 45.292969 56.253906 C 45.835938 55.453125 46.257812 54.4375 46.554688 53.203125 C 46.652344 52.769531 46.734375 52.308594 46.804688 51.824219 C 47.023438 50.242188 47.035156 48.523438 46.84375 46.671875 Z M 58.515625 28.957031 C 59.191406 32.675781 59.703125 36.171875 60.054688 39.441406 C 59.074219 40.089844 58.03125 40.257812 56.925781 39.941406 C 57.285156 36.519531 57.816406 32.859375 58.515625 28.957031 Z M 67.722656 56.078125 C 67.707031 55.929688 66.980469 51.894531 65.550781 43.96875 C 64.117188 36.046875 63.621094 27.789062 64.058594 19.199219 L 52.984375 19.199219 C 53.160156 29.140625 52.59375 37.734375 51.289062 44.980469 C 49.984375 52.226562 49.324219 55.929688 49.308594 56.078125 L 56.992188 56.078125 C 56.570312 53.792969 56.382812 51.066406 56.425781 47.894531 C 58.039062 48.78125 59.429688 48.714844 60.605469 47.695312 C 60.65625 50.949219 60.472656 53.742188 60.050781 56.078125 Z M 82.378906 19.199219 C 82.492188 20.015625 82.636719 22.082031 82.8125 25.402344 C 83.015625 29.238281 83.140625 32.816406 83.195312 36.136719 C 81.914062 33 81.023438 30.207031 80.515625 27.753906 C 80.070312 25.652344 79.734375 22.875 79.515625 19.421875 L 72.253906 19.421875 C 73.03125 26.328125 73.203125 34.492188 72.765625 43.917969 C 72.632812 46.871094 72.445312 49.78125 72.199219 52.652344 C 72.121094 53.535156 72.042969 54.367188 71.964844 55.152344 C 71.9375 55.402344 71.914062 55.628906 71.898438 55.828125 L 71.882812 55.929688 L 71.882812 56.003906 L 71.871094 56.054688 L 71.871094 56.078125 L 78.558594 56.078125 C 77.910156 52.941406 77.574219 49.324219 77.546875 45.21875 C 77.546875 43.902344 77.574219 42.660156 77.625 41.492188 C 77.652344 41.074219 77.675781 40.730469 77.703125 40.464844 C 77.71875 40.238281 77.730469 40.128906 77.742188 40.132812 C 77.742188 40.132812 77.742188 40.136719 77.742188 40.136719 C 77.742188 40.136719 77.742188 40.136719 77.742188 40.140625 C 77.742188 40.136719 77.742188 40.132812 77.742188 40.132812 C 77.738281 40.125 77.746094 40.136719 77.769531 40.164062 L 77.847656 40.316406 C 77.945312 40.515625 78.054688 40.757812 78.175781 41.039062 C 78.5625 41.925781 78.941406 42.941406 79.320312 44.09375 C 79.84375 45.660156 80.3125 47.335938 80.726562 49.121094 C 81.242188 51.359375 81.652344 53.675781 81.960938 56.078125 L 89.210938 56.078125 L 89.199219 56.054688 L 89.199219 56.003906 L 89.171875 55.804688 C 89.152344 55.550781 89.132812 55.285156 89.105469 55.003906 C 89.019531 54.101562 88.933594 53.140625 88.855469 52.125 C 88.601562 48.871094 88.410156 45.667969 88.277344 42.515625 C 87.867188 32.425781 88.160156 24.652344 89.15625 19.199219 Z M 99.835938 45.21875 C 99.761719 43.871094 99.71875 42.359375 99.703125 40.691406 C 99.640625 35.972656 99.796875 32.152344 100.175781 29.230469 C 100.210938 28.949219 100.410156 28.898438 100.78125 29.082031 C 100.910156 29.148438 101.078125 29.25 101.277344 29.382812 L 101.515625 29.53125 C 101.613281 29.597656 101.679688 29.648438 101.726562 29.683594 C 102.855469 30.433594 103.65625 31.777344 104.128906 33.710938 C 104.558594 35.480469 104.660156 37.421875 104.429688 39.539062 C 104.195312 41.625 103.695312 43.367188 102.933594 44.769531 C 102.101562 46.289062 101.117188 47.046875 99.976562 47.046875 C 99.933594 47.046875 99.886719 46.4375 99.835938 45.21875 Z M 109.09375 29.554688 C 108.027344 24.9375 106.261719 21.890625 103.800781 20.421875 C 102.269531 19.488281 99.832031 19.039062 96.496094 19.074219 L 94.566406 19.074219 L 94.183594 19.046875 L 93.359375 19.046875 C 94.3125 26.46875 94.640625 34.492188 94.34375 43.117188 C 94.246094 46.019531 94.078125 48.839844 93.84375 51.574219 C 93.765625 52.558594 93.675781 53.484375 93.582031 54.351562 C 93.511719 55.003906 93.445312 55.535156 93.382812 55.953125 C 96.421875 56.070312 97.9375 56.101562 97.929688 56.054688 L 101.554688 56.054688 C 103.105469 56.054688 104.480469 55.445312 105.679688 54.226562 C 106.949219 52.941406 107.941406 51.050781 108.660156 48.546875 C 109.730469 44.792969 110.160156 40.625 109.949219 36.035156 C 109.835938 33.703125 109.550781 31.542969 109.09375 29.554688 Z M 15.855469 80.164062 C 16.574219 80.207031 17.207031 80.109375 17.757812 79.867188 C 18.40625 79.59375 18.816406 79.160156 18.992188 78.566406 C 19.414062 77.199219 19.371094 76.058594 18.859375 75.144531 C 18.316406 74.203125 17.433594 73.832031 16.203125 74.027344 C 16.066406 76.097656 15.949219 78.140625 15.855469 80.164062 Z M 15.617188 86.890625 C 15.609375 88.898438 15.625 90.828125 15.664062 92.683594 C 15.910156 92.699219 16.171875 92.667969 16.441406 92.59375 C 17.015625 92.425781 17.535156 92.097656 18 91.613281 C 18.453125 91.125 18.753906 90.59375 18.898438 90.015625 C 19.0625 89.394531 19.019531 88.820312 18.765625 88.304688 C 18.484375 87.742188 17.964844 87.316406 17.207031 87.027344 C 16.808594 86.859375 16.277344 86.816406 15.617188 86.890625 Z M 23.328125 85.5 C 23.621094 86.152344 23.863281 87 24.046875 88.03125 C 24.164062 88.671875 24.257812 89.355469 24.320312 90.085938 C 24.664062 93.917969 23.875 96.859375 21.949219 98.910156 C 20.433594 100.507812 18.601562 101.304688 16.453125 101.304688 L 10.023438 101.304688 C 10.078125 100.941406 10.140625 100.453125 10.203125 99.847656 C 10.292969 99.070312 10.371094 98.226562 10.441406 97.3125 C 10.660156 94.820312 10.808594 92.242188 10.898438 89.582031 C 11.167969 81.707031 10.871094 74.386719 10 67.617188 C 10.007812 67.664062 10.226562 67.679688 10.660156 67.664062 L 10.898438 67.640625 L 11.113281 67.640625 C 11.265625 67.625 11.34375 67.617188 11.351562 67.617188 C 13.109375 67.617188 14.78125 67.625 16.371094 67.640625 C 17.816406 67.65625 18.960938 67.847656 19.804688 68.210938 C 20.507812 68.53125 21.15625 69.191406 21.746094 70.195312 C 22.3125 71.152344 22.734375 72.292969 23.015625 73.617188 C 23.3125 74.96875 23.402344 76.308594 23.289062 77.632812 C 23.171875 79.074219 22.816406 80.339844 22.226562 81.417969 C 21.777344 82.238281 21.328125 82.695312 20.871094 82.785156 L 20.859375 82.785156 L 20.835938 82.808594 C 21.15625 82.734375 21.605469 83.035156 22.1875 83.722656 C 22.691406 84.328125 23.070312 84.921875 23.328125 85.5 Z M 36.496094 86.136719 C 36.175781 83.15625 35.707031 79.972656 35.09375 76.582031 C 34.457031 80.140625 33.972656 83.476562 33.644531 86.59375 C 34.652344 86.882812 35.601562 86.730469 36.496094 86.136719 Z M 41.503906 90.265625 C 42.808594 97.488281 43.472656 101.167969 43.488281 101.304688 L 36.496094 101.304688 C 36.878906 99.175781 37.046875 96.628906 36.996094 93.664062 C 35.925781 94.589844 34.65625 94.652344 33.1875 93.847656 C 33.148438 96.734375 33.320312 99.222656 33.703125 101.304688 L 26.699219 101.304688 C 26.714844 101.167969 27.316406 97.796875 28.507812 91.1875 C 29.695312 84.582031 30.210938 76.75 30.050781 67.6875 L 40.144531 67.6875 C 39.746094 75.519531 40.199219 83.042969 41.503906 90.265625 Z M 44.035156 77.652344 L 44.035156 67.6875 L 58.691406 67.6875 L 58.691406 77.5625 C 58.203125 76.621094 57.644531 75.84375 57.015625 75.234375 C 55.761719 74.035156 54.796875 74.261719 54.117188 75.921875 C 53.765625 76.800781 53.558594 77.972656 53.492188 79.433594 C 53.460938 79.996094 53.453125 80.640625 53.46875 81.371094 L 53.492188 82.304688 L 53.53125 83.242188 C 53.664062 87.40625 53.855469 90.996094 54.105469 94.007812 C 54.113281 94.050781 54.128906 94.210938 54.152344 94.484375 L 54.164062 94.667969 L 54.175781 94.894531 L 54.222656 95.398438 C 54.296875 96.339844 54.363281 97.167969 54.429688 97.882812 C 54.621094 100.164062 54.742188 101.304688 54.800781 101.304688 L 48.152344 101.304688 L 48.511719 97.722656 C 48.65625 96.371094 48.773438 95.167969 48.859375 94.121094 C 49.097656 91.414062 49.25 88.996094 49.316406 86.867188 C 49.324219 86.59375 49.335938 86.207031 49.351562 85.703125 L 49.398438 84.449219 C 49.429688 83.445312 49.445312 82.585938 49.445312 81.871094 C 49.445312 79.851562 49.308594 78.214844 49.027344 76.96875 C 48.597656 75.054688 47.867188 74.09375 46.835938 74.09375 C 46.316406 74.09375 45.792969 74.429688 45.269531 75.097656 C 44.757812 75.769531 44.347656 76.621094 44.035156 77.652344 Z M 61.632812 77.652344 L 61.632812 67.6875 L 76.289062 67.6875 L 76.289062 77.5625 C 75.800781 76.621094 75.242188 75.84375 74.613281 75.234375 C 73.359375 74.035156 72.394531 74.261719 71.714844 75.921875 C 71.363281 76.800781 71.15625 77.972656 71.09375 79.433594 C 71.058594 79.996094 71.050781 80.640625 71.066406 81.371094 L 71.09375 82.304688 L 71.128906 83.242188 C 71.261719 87.40625 71.457031 90.996094 71.703125 94.007812 C 71.710938 94.050781 71.726562 94.210938 71.75 94.484375 L 71.761719 94.667969 L 71.773438 94.894531 L 71.824219 95.398438 C 71.894531 96.339844 71.960938 97.167969 72.027344 97.882812 C 72.21875 100.164062 72.339844 101.304688 72.398438 101.304688 L 65.75 101.304688 L 66.109375 97.722656 C 66.253906 96.371094 66.371094 95.167969 66.457031 94.121094 C 66.699219 91.414062 66.847656 88.996094 66.914062 86.867188 C 66.921875 86.59375 66.933594 86.207031 66.949219 85.703125 L 66.996094 84.449219 C 67.027344 83.445312 67.042969 82.585938 67.042969 81.871094 C 67.042969 79.851562 66.90625 78.214844 66.625 76.96875 C 66.195312 75.054688 65.464844 74.09375 64.433594 74.09375 C 63.914062 74.09375 63.394531 74.429688 62.867188 75.097656 C 62.355469 75.769531 61.945312 76.621094 61.632812 77.652344 Z M 85.589844 88.691406 C 85.652344 89.773438 85.773438 90.683594 85.949219 91.429688 C 86.378906 93.332031 87.144531 94.28125 88.246094 94.28125 C 88.847656 94.28125 89.464844 93.886719 90.101562 93.09375 C 90.613281 92.472656 91.125 91.605469 91.636719 90.496094 C 92.21875 89.21875 92.695312 87.949219 93.0625 86.6875 L 93.0625 101.304688 L 79.972656 101.304688 C 80.027344 100.941406 80.089844 100.460938 80.152344 99.867188 C 80.242188 99.078125 80.320312 98.234375 80.390625 97.335938 C 80.609375 94.84375 80.757812 92.265625 80.847656 89.605469 C 81.117188 81.742188 80.820312 74.4375 79.949219 67.6875 L 86.808594 67.6875 C 86.800781 67.761719 86.773438 68.015625 86.726562 68.441406 C 86.695312 68.683594 86.671875 68.890625 86.65625 69.054688 C 86.621094 69.328125 86.589844 69.597656 86.558594 69.855469 C 86.390625 71.328125 86.242188 72.773438 86.117188 74.1875 C 85.707031 78.644531 85.503906 82.527344 85.503906 85.84375 C 85.503906 86.9375 85.53125 87.886719 85.589844 88.691406 Z M 102.921875 90.109375 C 103.042969 91.082031 103.34375 91.871094 103.820312 92.480469 C 104.371094 93.164062 105.097656 93.503906 106 93.503906 C 106.609375 93.503906 107.179688 93.15625 107.714844 92.457031 C 108.226562 91.789062 108.660156 90.859375 109.019531 89.675781 C 109.089844 94.386719 109.402344 98.265625 109.953125 101.304688 L 96.863281 101.304688 C 96.921875 100.957031 96.980469 100.460938 97.042969 99.824219 C 97.132812 99.003906 97.210938 98.121094 97.285156 97.179688 C 97.5 94.59375 97.652344 91.941406 97.738281 89.21875 C 98.011719 81.191406 97.710938 74.011719 96.839844 67.6875 L 109.988281 67.6875 L 109.988281 67.734375 C 109.980469 67.792969 109.976562 67.855469 109.976562 67.914062 C 109.953125 68.097656 109.933594 68.304688 109.914062 68.53125 C 109.84375 69.246094 109.777344 70.015625 109.710938 70.835938 C 109.503906 73.433594 109.339844 76.027344 109.222656 78.613281 C 108.878906 77.214844 108.425781 76.105469 107.867188 75.28125 C 107.292969 74.429688 106.671875 74.003906 106 74.003906 C 105.058594 74.003906 104.230469 74.796875 103.523438 76.378906 C 102.820312 77.945312 102.402344 79.90625 102.265625 82.261719 C 102.855469 81.425781 103.457031 80.839844 104.074219 80.503906 C 104.878906 80.066406 105.671875 80.070312 106.457031 80.527344 C 107.167969 80.9375 107.648438 81.539062 107.90625 82.328125 C 108.152344 83.015625 108.277344 83.773438 108.277344 84.609375 C 108.277344 85.691406 108.078125 86.617188 107.675781 87.394531 C 107.269531 88.167969 106.777344 88.554688 106.203125 88.554688 C 105.726562 88.554688 105.296875 88.265625 104.921875 87.691406 C 104.546875 87.125 104.304688 86.414062 104.191406 85.546875 C 103.707031 85.925781 103.34375 86.558594 103.101562 87.4375 C 102.871094 88.289062 102.8125 89.179688 102.921875 90.109375 Z M 102.921875 90.109375 "/>
</g>
</svg>
